<svg width="14" height="10" viewBox="0 0 14 10" fill="none" xmlns="http://www.w3.org/2000/svg">
<path fill-rule="evenodd" clip-rule="evenodd" d="M14.001 4.83984C14.001 4.69887 13.9483 4.56367 13.8545 4.46399C13.7607 4.36431 13.6336 4.3083 13.501 4.3083H1.70795L4.85495 0.963867C4.90144 0.914447 4.93832 0.855776 4.96348 0.791206C4.98864 0.726635 5.00159 0.657429 5.00159 0.587538C5.00159 0.517647 4.98864 0.448441 4.96348 0.38387C4.93832 0.319299 4.90144 0.260629 4.85495 0.211209C4.80847 0.161789 4.75328 0.122586 4.69254 0.0958404C4.6318 0.0690944 4.5667 0.0553284 4.50095 0.0553284C4.43521 0.0553284 4.37011 0.0690944 4.30937 0.0958404C4.24863 0.122586 4.19344 0.161789 4.14695 0.211209L0.146955 4.46351C0.100392 4.51289 0.0634487 4.57154 0.0382423 4.63612C0.0130358 4.7007 6.10352e-05 4.76993 6.10352e-05 4.83984C6.10352e-05 4.90976 0.0130358 4.97899 0.0382423 5.04356C0.0634487 5.10814 0.100392 5.1668 0.146955 5.21617L4.14695 9.46847C4.19344 9.51789 4.24863 9.5571 4.30937 9.58384C4.37011 9.61059 4.43521 9.62436 4.50095 9.62436C4.5667 9.62436 4.6318 9.61059 4.69254 9.58384C4.75328 9.5571 4.80847 9.51789 4.85495 9.46847C4.90144 9.41905 4.93832 9.36038 4.96348 9.29581C4.98864 9.23124 5.00159 9.16204 5.00159 9.09215C5.00159 9.02225 4.98864 8.95305 4.96348 8.88848C4.93832 8.82391 4.90144 8.76524 4.85495 8.71582L1.70795 5.37138H13.501C13.6336 5.37138 13.7607 5.31538 13.8545 5.2157C13.9483 5.11601 14.001 4.98081 14.001 4.83984Z" fill="#A9A9A9"/>
</svg>
