<svg width="28" height="28" viewBox="0 0 28 28" fill="none" xmlns="http://www.w3.org/2000/svg">
<path d="M1.16663 4.44203C1.16663 4.19219 1.32795 3.95258 1.61512 3.77591C1.90228 3.59925 2.29176 3.5 2.69788 3.5H24.1354C24.5415 3.5 24.931 3.59925 25.2181 3.77591C25.5053 3.95258 25.6666 4.19219 25.6666 4.44203C25.6666 4.69187 25.5053 4.93148 25.2181 5.10814C24.931 5.28481 24.5415 5.38406 24.1354 5.38406H2.69788C2.29176 5.38406 1.90228 5.28481 1.61512 5.10814C1.32795 4.93148 1.16663 4.69187 1.16663 4.44203ZM1.16663 23.558C1.16663 23.3081 1.32795 23.0685 1.61512 22.8919C1.90228 22.7152 2.29176 22.6159 2.69788 22.6159H24.1354C24.5415 22.6159 24.931 22.7152 25.2181 22.8919C25.5053 23.0685 25.6666 23.3081 25.6666 23.558C25.6666 23.8078 25.5053 24.0474 25.2181 24.2241C24.931 24.4008 24.5415 24.5 24.1354 24.5H2.69788C2.29176 24.5 1.90228 24.4008 1.61512 24.2241C1.32795 24.0474 1.16663 23.8078 1.16663 23.558ZM2.69788 13.058C2.29176 13.058 1.90228 13.1572 1.61512 13.3339C1.32795 13.5105 1.16663 13.7502 1.16663 14C1.16663 14.2498 1.32795 14.4894 1.61512 14.6661C1.90228 14.8428 2.29176 14.942 2.69788 14.942H14.9479C15.354 14.942 15.7435 14.8428 16.0306 14.6661C16.3178 14.4894 16.4791 14.2498 16.4791 14C16.4791 13.7502 16.3178 13.5105 16.0306 13.3339C15.7435 13.1572 15.354 13.058 14.9479 13.058H2.69788Z" fill="black"/>
</svg>
